<?xml version="1.0" encoding="UTF-8"?>
<svg id="Layer_1" data-name="Layer 1" xmlns="http://www.w3.org/2000/svg" viewBox="0 0 95.49 91.06">
  <defs>
    <style>
      .cls-1 {
        fill: #fff;
      }

      .cls-2 {
        fill: #90c347;
      }
    </style>
  </defs>
  <rect class="cls-2" x="0" y="0" width="95.49" height="91.06" rx="22.4" ry="22.4"/>
  <g>
    <path class="cls-1" d="M68.26,66.98c4.52,3.77,8.85,7.38,13.46,11.22-.79,.09-1.16,.17-1.54,.17-4.75,0-9.5,.04-14.25-.03-.78-.01-1.7-.36-2.31-.85-3.12-2.49-6.13-5.13-9.27-7.59-.74-.58-1.85-.97-2.79-.99-4.79-.1-9.59-.05-14.67-.05,0,2.68-.08,5.2,.03,7.72,.07,1.47-.43,1.89-1.86,1.84-2.89-.1-5.79-.04-8.69-.03-.76,0-1.37-.04-1.36-1.07,.04-5.96,.04-11.92,.06-17.89,0-.1,.09-.2,.22-.47,.59-.03,1.27-.08,1.95-.08,10.13,0,20.27,.03,30.4-.05,1.7-.01,3.45-.37,5.08-.88,1.59-.5,2.62-1.72,2.54-3.54-.09-1.75-1.02-3.02-2.69-3.45-1.66-.42-3.41-.74-5.12-.75-12.39-.04-24.78,.02-37.17,.05-.8,0-1.59,0-2.52,0v-9.91c.38-.04,.71-.11,1.04-.11,13.43,.02,26.87,.01,40.3,.11,4.22,.03,8.26,1.07,11.96,3.18,8.51,4.85,8.62,16.73,.19,21.76-.89,.53-1.81,1.02-3.02,1.69Z"/>
    <path class="cls-1" d="M37.43,5.34c-.08,.56-1.12,1.31-1.46,1.77-4.92,6.56-7.8,17.02-2.39,24.16,.74,.98,1.61,1.84,2.59,2.59,.4,.31,.79,.62,1.21,.9,.51,.36,2.02,.91,2.31,1.41l3.66,6.38h1.71l-.3-.89s3.78-10.57,10.63-14.41c0,0-5.79,5.32-8.03,10.81-.03,.06,2.87,.13,3.17,.09,1.1-.15,2.17-.51,3.09-1.13,2.24-1.51,2.85-4.22,3.75-6.6,.52-1.38,1.16-2.74,1.99-3.97,.41-.6,2.32-3.28,3.23-3.03-6.11-1.67-14.42,1.91-16.43,8.19-.52,1.61-.31,3.04-.51,4.68s-.74,3.13-1.62,4.47c-2.57-3.77-4.95-7.71-6.52-11.99s-2.3-8.95-1.5-13.45c.34,3.42,.67,6.86,1.5,10.2s2.16,6.6,4.31,9.29c.05,.06,2.05-2.64,2.21-2.9,2.1-3.53,2.3-7.02,.01-10.47-3.01-4.54-6.61-8.47-6.72-14.24-.01-.62,.02-1.24,.11-1.85Z"/>
  </g>
</svg>