<?xml version="1.0" encoding="UTF-8"?>
<svg id="Layer_1" data-name="Layer 1" xmlns="http://www.w3.org/2000/svg" xmlns:xlink="http://www.w3.org/1999/xlink" viewBox="0 0 571.53 567.02">
  <defs>
    <style>
      .cls-1 {
        fill: #c3f59a;
      }

      .cls-2 {
        fill: url(#radial-gradient);
      }

      .cls-3 {
        mask: url(#mask);
      }
    </style>
    <radialGradient id="radial-gradient" cx="298.14" cy="218.58" fx="298.14" fy="218.58" r="282.86" gradientTransform="translate(-24.71 54.05) rotate(-2.83)" gradientUnits="userSpaceOnUse">
      <stop offset="0" stop-color="#fff"/>
      <stop offset=".25" stop-color="#b2b2b2"/>
      <stop offset=".52" stop-color="#666"/>
      <stop offset=".74" stop-color="#2f2f2f"/>
      <stop offset=".91" stop-color="#0c0c0c"/>
      <stop offset="1" stop-color="#000"/>
    </radialGradient>
    <mask id="mask" x="1" y="-25.23" width="565.74" height="565.74" maskUnits="userSpaceOnUse">
      <path class="cls-2" d="M566.39,243.66c7.72,156.03-112.51,288.77-268.53,296.5C141.82,547.88,9.08,427.66,1.35,271.62-6.37,115.6,113.86-17.15,269.89-24.87c156.03-7.72,288.77,112.51,296.5,268.54Z"/>
    </mask>
  </defs>
  <g class="cls-3">
    <path class="cls-1" d="M108.46,103.9l-11.12,23.17c-.93-.29-1.98-.18-2.85,.42-1.52,1.03-1.91,3.1-.87,4.62,.96,1.4,2.8,1.82,4.27,1.06l14.29,20.9c-.12,.06-.24,.11-.35,.19-1.51,1.04-1.91,3.11-.87,4.62,.34,.5,.81,.87,1.33,1.11l-11.06,23.05c-1.03-.5-2.29-.45-3.31,.25-.95,.65-1.46,1.71-1.44,2.79l-25.79,1.97c-.09-.38-.24-.76-.48-1.11-.88-1.29-2.5-1.75-3.9-1.23l-14.51-21.21c.99-1.11,1.15-2.79,.27-4.08-1.03-1.52-3.1-1.91-4.62-.87-.83,.56-1.31,1.45-1.42,2.38l-25.6,1.96c-.1-.36-.24-.7-.46-1.03-1.04-1.52-3.1-1.91-4.62-.87-1.52,1.04-1.9,3.11-.87,4.62,.3,.44,.7,.77,1.13,1.01l-11.06,23.05c-.99-.4-2.16-.31-3.11,.34-1.52,1.04-1.9,3.11-.87,4.62,1.04,1.51,3.1,1.9,4.62,.86l14.41,21.07c-1.52,1.04-1.9,3.11-.87,4.62,1.04,1.51,3.1,1.9,4.62,.86,.96-.65,1.46-1.73,1.44-2.81l25.47-1.94c.07,.5,.24,.99,.54,1.43,1.04,1.51,3.11,1.9,4.62,.86l14.4,21.05c-1.51,1.04-1.9,3.11-.87,4.62,.35,.51,.81,.87,1.32,1.11l-11.06,23.05c-1.04-.5-2.29-.46-3.31,.24-1.51,1.04-1.9,3.11-.87,4.62,1.04,1.51,3.11,1.9,4.62,.86l14.41,21.08c-1.51,1.04-1.9,3.11-.87,4.62,1.04,1.51,3.11,1.9,4.62,.86,.9-.61,1.38-1.59,1.43-2.6l25.51-1.95c.08,.42,.25,.84,.51,1.21,1.03,1.51,3.11,1.9,4.62,.86l14.7,21.5c-1.25,1.09-1.53,2.96-.57,4.36,.26,.38,.59,.69,.96,.92l-11.08,23.08c-.95-.32-2.03-.21-2.92,.4-1.52,1.04-1.9,3.11-.87,4.62,.96,1.4,2.8,1.82,4.27,1.05l14.46,21.14c-1.25,1.09-1.52,2.96-.56,4.36,1.04,1.51,3.1,1.9,4.62,.87,.9-.62,1.39-1.6,1.43-2.61l25.5-1.95c.09,.43,.26,.85,.52,1.23,.96,1.4,2.8,1.82,4.27,1.06l14.62,21.38c-1.25,1.09-1.52,2.96-.56,4.36,1.04,1.52,3.11,1.91,4.62,.87,.96-.66,1.46-1.72,1.45-2.8l25.84-1.98c.08,.43,.25,.86,.52,1.24,.96,1.4,2.8,1.82,4.27,1.06l14.46,21.14c-1.25,1.09-1.52,2.95-.56,4.36,1.04,1.52,3.11,1.9,4.62,.86,.92-.62,1.41-1.63,1.44-2.66l25.49-1.95c.08,.45,.25,.89,.52,1.28,.96,1.41,2.8,1.82,4.27,1.06l14.48,21.18c-1.25,1.09-1.53,2.96-.57,4.36,.28,.41,.64,.73,1.04,.97l-11.21,23.36c-1.02-.44-2.22-.37-3.2,.29-.92,.63-1.42,1.64-1.44,2.68l-25.51,1.95c-.08-.46-.24-.91-.53-1.32-1.04-1.52-3.1-1.91-4.62-.87-1.51,1.04-1.9,3.11-.87,4.62,.28,.41,.64,.73,1.04,.97l-11.06,23.06c-.97-.36-2.1-.26-3.02,.37-1.52,1.04-1.91,3.1-.87,4.62,.96,1.4,2.8,1.82,4.27,1.06l14.46,21.14c-1.25,1.09-1.52,2.96-.56,4.36,1.04,1.52,3.11,1.9,4.62,.86,.87-.6,1.35-1.54,1.42-2.51l25.54-1.95c.09,.39,.25,.78,.49,1.13,.96,1.4,2.8,1.82,4.27,1.06l14.56,21.29c-1.25,1.09-1.52,2.96-.56,4.36,1.04,1.51,3.11,1.9,4.62,.87,.9-.62,1.39-1.6,1.43-2.61l25.51-1.95c.09,.42,.26,.85,.52,1.23,1.03,1.51,3.11,1.9,4.62,.86,1.52-1.04,1.9-3.11,.86-4.62-.26-.38-.59-.69-.95-.93l11.2-23.35c1,.41,2.18,.33,3.14-.33,.9-.62,1.39-1.59,1.43-2.61l25.5-1.94c.08,.43,.25,.84,.52,1.23,1.04,1.52,3.11,1.9,4.62,.87,1.52-1.04,1.9-3.11,.87-4.62-.26-.38-.58-.69-.95-.93l11.08-23.09c.95,.31,2.02,.2,2.9-.4,1.52-1.04,1.9-3.11,.87-4.62-.96-1.4-2.79-1.82-4.26-1.06l-14.43-21.1c1.25-1.09,1.52-2.96,.56-4.36-.23-.35-.52-.62-.84-.84l11.34-23.63c1.04,.49,2.3,.45,3.31-.24,.96-.65,1.46-1.72,1.44-2.8l25.41-1.94c.08,.45,.25,.89,.52,1.29,.96,1.4,2.8,1.82,4.27,1.06l14.46,21.14c-1.25,1.09-1.52,2.96-.56,4.36,1.04,1.51,3.11,1.9,4.62,.86,.9-.61,1.39-1.59,1.43-2.61l25.5-1.95c.09,.43,.26,.84,.52,1.23,1.03,1.52,3.11,1.9,4.62,.87,1.52-1.04,1.9-3.11,.87-4.62-.26-.38-.59-.69-.96-.92l11.08-23.09c.95,.31,2.02,.2,2.91-.41,.95-.65,1.45-1.7,1.45-2.77l26.23-2c.1,.36,.24,.71,.46,1.03,1.03,1.52,3.1,1.9,4.62,.86,1.51-1.04,1.9-3.1,.87-4.62-.3-.44-.7-.77-1.14-1.02l11.05-23.03c1,.41,2.18,.33,3.14-.33,.9-.61,1.39-1.59,1.44-2.61l25.5-1.95c.08,.43,.25,.84,.52,1.23,1.04,1.51,3.1,1.9,4.62,.87,1.51-1.04,1.9-3.11,.87-4.62-.26-.38-.59-.69-.96-.93l11.08-23.09c.95,.31,2.02,.21,2.91-.4,1.52-1.04,1.9-3.11,.87-4.62-.96-1.4-2.8-1.82-4.27-1.06l-14.43-21.1c1.25-1.09,1.52-2.96,.56-4.36-1.03-1.51-3.1-1.9-4.62-.87-.9,.61-1.38,1.58-1.43,2.58l-25.52,1.95c-.09-.43-.26-.85-.52-1.23-.96-1.41-2.8-1.82-4.27-1.06l-14.67-21.45c1.25-1.1,1.52-2.96,.56-4.36-1.04-1.51-3.11-1.91-4.62-.87-.98,.67-1.48,1.78-1.44,2.88l-25.77,1.97c-.09-.42-.26-.83-.51-1.2-.96-1.4-2.8-1.82-4.27-1.06l-14.43-21.1c1.24-1.09,1.52-2.96,.56-4.36-1.04-1.52-3.11-1.9-4.62-.86-.89,.61-1.38,1.58-1.44,2.58l-25.52,1.95c-.09-.42-.26-.85-.52-1.22-1.04-1.52-3.11-1.91-4.62-.87-1.52,1.04-1.9,3.1-.87,4.62,.26,.38,.59,.69,.96,.93l-11.07,23.08c-.95-.32-2.03-.21-2.92,.4-1.52,1.04-1.91,3.11-.87,4.62,.96,1.4,2.8,1.82,4.27,1.06l14.46,21.14c-1.25,1.09-1.52,2.96-.57,4.36,.29,.42,.66,.75,1.07,.99l-11.02,22.96c-1.01-.44-2.22-.37-3.2,.3-1.04,.71-1.53,1.91-1.42,3.08l-26.01,1.99c-.07-.5-.23-1-.54-1.45-1-1.46-2.96-1.86-4.46-.95l-14.41-21.07c1.39-1.06,1.73-3.04,.73-4.5-1.04-1.52-3.1-1.91-4.62-.87-.97,.66-1.47,1.75-1.44,2.84l-25.49,1.94c-.06-.51-.23-1.02-.54-1.47-1-1.47-2.96-1.86-4.46-.96l-14.35-20.98c1.25-1.09,1.52-2.96,.56-4.36-1.03-1.52-3.1-1.9-4.62-.87-.88,.6-1.36,1.55-1.43,2.54l-25.33,1.94c-.08-.45-.25-.88-.52-1.28-1.04-1.51-3.1-1.9-4.62-.87-1.52,1.04-1.9,3.11-.87,4.62,.23,.33,.51,.6,.82,.82l-11.31,23.57c-.98-.38-2.13-.28-3.06,.36-.88,.6-1.36,1.54-1.43,2.52l-25.55,1.95c-.09-.41-.25-.8-.5-1.17-1.04-1.51-3.11-1.9-4.62-.86l-16.55-24.2-29.07,2.22c-.08-.45-.24-.9-.52-1.3-.96-1.4-2.79-1.82-4.26-1.06l-14.43-21.1c1.24-1.09,1.52-2.95,.56-4.35-.29-.43-.67-.76-1.09-1l11.24-23.43c1,.41,2.18,.33,3.14-.33,.9-.61,1.39-1.59,1.44-2.61l25.5-1.95c.09,.43,.26,.84,.52,1.23,1.04,1.51,3.11,1.9,4.62,.86l14.52,21.22c-1.25,1.09-1.52,2.96-.56,4.36,1.04,1.52,3.11,1.9,4.62,.87,.89-.61,1.38-1.57,1.43-2.57l25.49-1.95c.09,.39,.25,.77,.49,1.13,1.04,1.51,3.11,1.9,4.62,.86,1.52-1.04,1.9-3.1,.87-4.61-.24-.35-.54-.64-.87-.86l11.19-23.32c1,.41,2.18,.33,3.14-.32,.9-.62,1.39-1.6,1.43-2.61l25.5-1.95c.09,.43,.25,.85,.51,1.23,.96,1.4,2.8,1.82,4.27,1.06l14.62,21.38c-1.25,1.09-1.52,2.96-.56,4.36,1.04,1.52,3.1,1.9,4.62,.86,.96-.65,1.46-1.72,1.45-2.79l25.29-1.93c.1,.35,.23,.69,.45,1,1.04,1.52,3.1,1.91,4.62,.87,1.52-1.04,1.9-3.11,.87-4.62-.22-.31-.48-.57-.77-.78l10.97-22.87c1,.4,2.18,.32,3.13-.33,1.52-1.04,1.91-3.11,.87-4.62-.96-1.41-2.8-1.83-4.27-1.06l-14.76-21.58c1.24-1.09,1.52-2.95,.56-4.36-.18-.26-.39-.47-.62-.67l11.27-23.49c.91,.25,1.91,.12,2.75-.45,.9-.61,1.39-1.59,1.43-2.59l25.51-1.95c.09,.42,.26,.83,.51,1.21,1.04,1.51,3.11,1.9,4.62,.86l14.44,21.11c-1.24,1.09-1.52,2.96-.56,4.36,1.04,1.51,3.11,1.9,4.62,.87,.82-.56,1.3-1.42,1.41-2.34l26.05-1.99c.1,.32,.23,.63,.42,.92,1.04,1.51,3.11,1.9,4.62,.86,1.52-1.04,1.9-3.1,.87-4.62-.28-.41-.63-.73-1.03-.96l10.98-22.88c.89,.22,1.87,.09,2.7-.47,1.52-1.04,1.9-3.1,.87-4.62-.96-1.41-2.81-1.83-4.28-1.05l-14.06-20.56c1.25-1.09,1.52-2.96,.56-4.36-1.04-1.51-3.1-1.9-4.62-.87-.79,.54-1.27,1.36-1.4,2.24l-26.29,2.01c-.08-.46-.25-.91-.53-1.32-.88-1.29-2.5-1.75-3.9-1.23l-14.5-21.21c.99-1.11,1.15-2.79,.27-4.08-1.04-1.52-3.11-1.91-4.62-.87-.9,.61-1.39,1.59-1.43,2.6l-25.52,1.95c-.09-.44-.25-.86-.52-1.24-.96-1.41-2.8-1.83-4.27-1.06l-14.45-21.12c1.25-1.09,1.52-2.96,.56-4.36-.22-.32-.49-.58-.79-.8l11.17-23.27c.93,.29,1.98,.18,2.85-.42,1.52-1.04,1.9-3.11,.87-4.62-.92-1.35-2.65-1.8-4.09-1.16l-14.57-21.3c1.25-1.09,1.52-2.96,.56-4.36-.26-.38-.59-.69-.96-.93l11.08-23.09c.95,.31,2.02,.2,2.91-.4,1.51-1.04,1.9-3.11,.87-4.62-.96-1.4-2.8-1.82-4.27-1.06l-14.43-21.1c1.24-1.09,1.52-2.95,.56-4.36-1.04-1.51-3.1-1.9-4.62-.87-.89,.61-1.38,1.58-1.43,2.58l-25.53,1.95c-.08-.43-.26-.85-.52-1.23-.96-1.4-2.79-1.82-4.27-1.06l-14.69-21.49c1.25-1.09,1.52-2.96,.56-4.36-1.04-1.52-3.1-1.91-4.62-.87-.99,.68-1.49,1.79-1.43,2.91l-25.29,1.93c-.09-.4-.25-.8-.5-1.16-1.04-1.52-3.1-1.9-4.62-.87-1.52,1.04-1.91,3.1-.87,4.62,.25,.36,.56,.66,.9,.89l-10.97,22.86c-1.02-.46-2.24-.4-3.23,.28-1.51,1.04-1.9,3.1-.87,4.62,.96,1.4,2.8,1.82,4.27,1.06l14.69,21.49c-1.24,1.09-1.52,2.96-.56,4.36,.22,.32,.49,.58,.79,.8l-11.24,23.43c-.95-.32-2.03-.21-2.92,.4-1.51,1.04-1.9,3.11-.87,4.62,.96,1.4,2.8,1.82,4.27,1.06l14.54,21.26c-1.25,1.09-1.52,2.96-.56,4.36,.26,.38,.59,.69,.96,.92l-11.07,23.08c-.95-.32-2.03-.21-2.93,.4-1.51,1.04-1.9,3.11-.87,4.62,.96,1.4,2.79,1.82,4.27,1.06l14.46,21.14c-1.25,1.09-1.52,2.96-.56,4.36,.23,.34,.51,.61,.82,.83l-11.25,23.44c-.96-.32-2.04-.21-2.93,.4-1.52,1.04-1.91,3.11-.87,4.62,.96,1.4,2.8,1.82,4.27,1.06l14.54,21.26c-1.25,1.09-1.52,2.96-.56,4.36,.26,.38,.59,.69,.96,.92l-11.07,23.08c-.96-.31-2.04-.21-2.93,.4-.96,.65-1.46,1.71-1.45,2.78l-26.29,2.01c-.09-.42-.26-.82-.51-1.2-.96-1.41-2.79-1.83-4.27-1.06l-14.43-21.1c1.24-1.1,1.52-2.96,.56-4.36-1.04-1.52-3.1-1.9-4.62-.87-.89,.61-1.38,1.58-1.43,2.58l-25.52,1.95c-.09-.42-.26-.84-.51-1.22-.96-1.4-2.79-1.83-4.27-1.06l-14.76-21.59c.99-1.11,1.14-2.79,.27-4.07-.18-.26-.39-.48-.62-.67l11.15-23.23c.84,.16,1.74,0,2.5-.52,1.52-1.03,1.9-3.1,.87-4.61-.88-1.29-2.5-1.76-3.9-1.23l-14.5-21.21c.99-1.11,1.14-2.79,.26-4.08-.15-.22-.32-.41-.51-.58l11.45-23.86c.9,.25,1.91,.12,2.74-.45,.9-.61,1.39-1.58,1.43-2.59l25.51-1.95c.09,.42,.26,.84,.51,1.21,1.04,1.51,3.11,1.9,4.62,.87,1.51-1.04,1.9-3.11,.86-4.62-.18-.26-.39-.47-.62-.66l11.15-23.24c.84,.16,1.74,0,2.5-.52,1.52-1.04,1.9-3.1,.87-4.62-.88-1.28-2.5-1.75-3.9-1.23l-14.51-21.21c1-1.11,1.15-2.79,.27-4.08-1.04-1.52-3.11-1.91-4.62-.87-.9,.61-1.39,1.59-1.43,2.6l-25.52,1.95c-.08-.43-.25-.85-.52-1.24-1.04-1.51-3.1-1.9-4.62-.87-1.52,1.04-1.9,3.1-.87,4.62,.34,.5,.81,.87,1.32,1.11l-11.06,23.05c-1.03-.5-2.29-.45-3.31,.24-.96,.65-1.46,1.72-1.45,2.8l-25.41,1.94c-.08-.45-.24-.9-.52-1.3-1.04-1.51-3.1-1.9-4.62-.87-1.52,1.04-1.9,3.11-.87,4.62,.27,.4,.63,.72,1.02,.96Zm55.15,20.5c-.08-.43-.25-.84-.52-1.22-.88-1.29-2.5-1.75-3.9-1.23l-14.53-21.25c.99-1.11,1.14-2.79,.27-4.08-.18-.27-.4-.48-.63-.68l11.14-23.22c.85,.17,1.76,.02,2.53-.51,.89-.61,1.38-1.58,1.44-2.58l25.52-1.95c.08,.43,.25,.85,.51,1.23,1.04,1.51,3.11,1.9,4.62,.86l14.39,21.03c-1.52,1.04-1.9,3.11-.87,4.62,.35,.51,.82,.88,1.35,1.13l-11.06,23.06c-1.04-.5-2.3-.46-3.32,.23-.9,.61-1.39,1.6-1.43,2.61l-25.51,1.95Zm-11.69,88.46l14.7,21.49c-1.24,1.09-1.52,2.96-.56,4.36,.25,.37,.56,.67,.91,.89l-11.08,23.09c-.94-.29-2-.18-2.87,.41-.87,.6-1.36,1.55-1.43,2.53l-26.43,2.02c-.09-.37-.24-.73-.47-1.07-.8-1.16-2.2-1.65-3.5-1.35l-14.64-21.41c.75-1.1,.8-2.58,0-3.75-.14-.2-.3-.38-.47-.54l11.36-23.67c.81,.13,1.67-.03,2.4-.53,.85-.58,1.34-1.5,1.42-2.45l25.56-1.95c.09,.38,.24,.74,.47,1.08,1.04,1.52,3.11,1.9,4.62,.87Zm189.45-70.64l14.45,21.12c-1.25,1.1-1.52,2.96-.56,4.36,.27,.4,.63,.72,1.02,.96l-11.07,23.07c-.97-.34-2.08-.25-2.99,.38-.91,.62-1.41,1.63-1.44,2.66l-28.53,2.18-16.21-23.71c1.24-1.09,1.52-2.96,.56-4.36-.25-.37-.56-.66-.91-.9l11.09-23.11c.93,.29,1.99,.18,2.86-.42,.87-.59,1.35-1.53,1.42-2.51l25.55-1.95c.09,.41,.25,.81,.5,1.17,.96,1.4,2.8,1.82,4.27,1.06Zm-80.82,34.08c.99,.39,2.15,.3,3.09-.35,.83-.56,1.31-1.43,1.41-2.36l25.6-1.95c.09,.34,.23,.68,.44,.98,.88,1.28,2.5,1.75,3.9,1.23l16.25,23.76-12.45,25.94c-.92-.26-1.94-.15-2.78,.44-.85,.58-1.33,1.49-1.42,2.44l-25.58,1.95c-.09-.38-.24-.74-.47-1.09-.96-1.4-2.8-1.82-4.27-1.06l-14.54-21.26c1.25-1.09,1.52-2.96,.56-4.36-.27-.39-.59-.7-.97-.93l11.22-23.38Zm-4.1-55.54c.96,.32,2.05,.22,2.94-.4,.9-.61,1.39-1.58,1.44-2.59l25.52-1.95c.08,.43,.25,.85,.52,1.24,.96,1.4,2.8,1.82,4.27,1.06l14.43,21.1c-1.24,1.09-1.52,2.96-.56,4.36,.27,.39,.6,.7,.98,.94l-11.08,23.09c-.95-.32-2.04-.22-2.94,.39-.9,.61-1.39,1.59-1.43,2.6l-25.51,1.95c-.09-.42-.26-.83-.52-1.21-.96-1.4-2.8-1.82-4.26-1.06l-14.46-21.14c1.24-1.09,1.52-2.96,.56-4.36-.26-.38-.59-.7-.97-.93l11.07-23.08Zm-4.2-55.99c1,.4,2.18,.32,3.13-.33,.84-.57,1.31-1.46,1.41-2.39l25.6-1.95c.09,.36,.24,.72,.46,1.04,.88,1.28,2.5,1.75,3.9,1.23l14.53,21.25c-.99,1.11-1.15,2.79-.27,4.08,.22,.32,.49,.57,.78,.79l-11.29,23.52c-.92-.26-1.94-.14-2.79,.44-.85,.58-1.33,1.49-1.42,2.44l-25.58,1.95c-.09-.38-.24-.75-.47-1.09-.96-1.4-2.8-1.83-4.27-1.06l-14.54-21.26c1.25-1.09,1.52-2.96,.56-4.36-.26-.39-.6-.7-.97-.93l11.21-23.36Zm25.69-60.49c.1,.32,.23,.63,.42,.92,.96,1.4,2.8,1.82,4.27,1.06l14.69,21.49c-1.25,1.09-1.52,2.96-.56,4.36,.25,.37,.56,.66,.91,.9l-11.08,23.09c-.94-.3-1.99-.19-2.87,.41-.88,.6-1.36,1.54-1.43,2.53l-25.55,1.95c-.09-.41-.25-.81-.5-1.18-.96-1.4-2.79-1.83-4.27-1.06l-14.69-21.49c1.25-1.09,1.52-2.96,.56-4.36-.2-.29-.44-.53-.71-.73l11-22.93c.97,.35,2.08,.25,3-.38,.92-.63,1.41-1.63,1.44-2.66l25.36-1.94Zm58.96,75.93c-.96-.32-2.04-.22-2.94,.4-.9,.61-1.39,1.59-1.43,2.6l-25.51,1.95c-.09-.42-.26-.83-.51-1.21-.96-1.4-2.8-1.83-4.27-1.06l-14.46-21.14c1.25-1.09,1.52-2.96,.56-4.36-.26-.39-.59-.7-.97-.93l11.07-23.07c.96,.32,2.05,.22,2.94-.4,.9-.61,1.39-1.59,1.43-2.59l25.52-1.95c.08,.43,.25,.85,.52,1.24,.96,1.4,2.79,1.82,4.27,1.06l14.43,21.1c-1.24,1.09-1.52,2.96-.56,4.36,.27,.39,.61,.7,.98,.94l-11.07,23.08Zm4.2,55.99c-1-.41-2.17-.32-3.13,.33-.84,.57-1.32,1.46-1.42,2.4l-25.6,1.95c-.09-.37-.24-.73-.47-1.06-.88-1.29-2.5-1.75-3.9-1.23l-14.5-21.21c.99-1.11,1.15-2.79,.27-4.08-.22-.33-.5-.59-.81-.81l11.28-23.51c.93,.27,1.96,.16,2.81-.43,.86-.58,1.34-1.5,1.42-2.46l25.55-1.95c.09,.38,.24,.75,.48,1.09,.96,1.4,2.8,1.82,4.27,1.06l14.55,21.27c-1.38,1.07-1.71,3.03-.72,4.49,.28,.41,.64,.72,1.04,.96l-11.13,23.19Zm75.01,108.68c-.06-.51-.23-1.02-.54-1.48-.96-1.4-2.79-1.82-4.27-1.06l-14.5-21.2c.99-1.11,1.15-2.79,.27-4.08-.17-.24-.37-.45-.58-.63l11.16-23.26c.83,.15,1.71-.02,2.46-.53,.87-.59,1.35-1.53,1.42-2.5l26.23-2.01c.05,.54,.22,1.09,.55,1.58,.96,1.4,2.8,1.82,4.27,1.06l14.06,20.56c-1.24,1.09-1.51,2.95-.55,4.35,.31,.46,.72,.8,1.18,1.04l-10.96,22.85c-.94-.29-1.98-.18-2.86,.42-.99,.68-1.49,1.79-1.43,2.91l-25.91,1.98Zm-50.6-24.13c-.08-.43-.26-.84-.52-1.23-.88-1.29-2.5-1.75-3.9-1.23l-14.54-21.25c1-1.11,1.15-2.79,.27-4.08-.18-.27-.4-.48-.63-.67l11.14-23.22c.85,.17,1.76,.01,2.53-.51,.89-.61,1.38-1.58,1.43-2.58l25.52-1.95c.08,.43,.26,.85,.52,1.23,1.03,1.51,3.1,1.9,4.62,.87l14.38,21.03c-1.51,1.04-1.9,3.11-.87,4.62,.35,.51,.82,.88,1.35,1.13l-11.06,23.05c-1.04-.5-2.3-.46-3.32,.23-.9,.62-1.39,1.6-1.43,2.61l-25.5,1.95Zm-16.08,26.89c-1.04-.5-2.3-.46-3.32,.23-.9,.61-1.39,1.59-1.44,2.61l-25.44,1.94c-.09-.37-.24-.73-.47-1.06-.88-1.29-2.5-1.75-3.9-1.23l-14.51-21.21c.99-1.11,1.15-2.79,.27-4.08-.22-.32-.5-.59-.81-.81l12.57-26.18,28.49-2.18c.09,.36,.24,.71,.46,1.03,.96,1.4,2.79,1.82,4.27,1.06l14.46,21.14c-1.24,1.09-1.52,2.96-.56,4.37,.3,.44,.7,.77,1.13,1.01l-11.2,23.35Zm-25.78,60.6c-.1-.36-.24-.71-.46-1.03-.96-1.41-2.8-1.83-4.27-1.06l-14.62-21.38c1.24-1.09,1.52-2.96,.56-4.36-.25-.37-.56-.67-.91-.9l11.09-23.11c.94,.29,1.99,.18,2.86-.42,.87-.59,1.36-1.53,1.42-2.51l25.48-1.95c.1,.34,.23,.66,.44,.97,.96,1.4,2.8,1.82,4.27,1.06l14.76,21.58c-1.25,1.1-1.52,2.96-.56,4.37,.22,.32,.49,.58,.79,.8l-10.97,22.85c-1.01-.41-2.19-.34-3.16,.32-.96,.66-1.47,1.74-1.44,2.83l-25.28,1.94Zm-50.35-24.16c-.09-.42-.26-.84-.52-1.21-.96-1.4-2.79-1.82-4.26-1.06l-14.46-21.14c1.24-1.09,1.52-2.96,.56-4.36-.26-.39-.59-.7-.96-.93l11.07-23.08c.95,.32,2.04,.22,2.94-.39,.9-.61,1.39-1.59,1.43-2.59l25.52-1.95c.08,.43,.26,.85,.52,1.24,.96,1.4,2.79,1.82,4.27,1.06l14.43,21.1c-1.25,1.09-1.52,2.96-.56,4.36,.27,.39,.61,.71,.98,.94l-11.08,23.09c-.96-.32-2.04-.22-2.94,.39-.9,.61-1.39,1.59-1.43,2.6l-25.51,1.95Zm-65.71,8.07c.99-1.11,1.15-2.79,.27-4.08-.19-.29-.43-.51-.68-.71l11.14-23.21c.86,.18,1.79,.03,2.58-.5,.9-.62,1.4-1.61,1.43-2.62l26.34-2.01c.1,.36,.24,.72,.46,1.05,.88,1.28,2.5,1.75,3.9,1.22l14.54,21.25c-1,1.12-1.15,2.8-.27,4.08,.22,.32,.49,.58,.79,.8l-11.2,23.35c-.98-.36-2.11-.28-3.04,.36-.93,.63-1.43,1.66-1.44,2.7l-25.45,1.94c-.09-.43-.25-.86-.52-1.25-.96-1.4-2.8-1.83-4.27-1.06l-14.57-21.31Zm-31.29-.41c-.09-.42-.26-.83-.51-1.21-.96-1.41-2.79-1.82-4.27-1.06l-14.46-21.14c1.25-1.09,1.52-2.96,.56-4.36-.26-.39-.6-.7-.97-.93l11.08-23.08c.95,.32,2.04,.22,2.94-.39,.9-.62,1.38-1.59,1.43-2.59l25.52-1.95c.08,.43,.25,.85,.52,1.24,.96,1.4,2.8,1.82,4.27,1.06l14.43,21.1c-1.24,1.09-1.52,2.96-.56,4.36,.27,.39,.6,.7,.98,.93l-11.08,23.09c-.95-.33-2.04-.22-2.93,.39-.9,.62-1.39,1.59-1.44,2.6l-25.51,1.95Zm-16.5,26.86c-.92-.27-1.94-.15-2.79,.43-.85,.58-1.33,1.49-1.41,2.44l-25.58,1.95c-.09-.38-.24-.75-.47-1.09-.96-1.4-2.8-1.82-4.26-1.06l-14.76-21.59c1-1.11,1.15-2.79,.27-4.08-.17-.24-.37-.45-.58-.63l11.16-23.26c.83,.15,1.71-.02,2.46-.53,.87-.59,1.35-1.52,1.42-2.5l26.44-2.02c.09,.37,.24,.72,.46,1.05,.88,1.28,2.5,1.75,3.9,1.23l14.53,21.25c-.99,1.11-1.15,2.79-.27,4.08,.22,.32,.49,.57,.78,.79l-11.28,23.52Zm120.98,130.63l-14.48-21.17c1.25-1.1,1.52-2.96,.56-4.36-.26-.39-.59-.7-.97-.93l11.08-23.09c.95,.31,2.03,.2,2.92-.4,.89-.61,1.38-1.58,1.43-2.57l26.08-1.99c.09,.27,.21,.55,.39,.8,.83,1.22,2.33,1.69,3.68,1.3l14.61,21.36c-.86,1.11-.96,2.68-.13,3.9,.22,.33,.5,.59,.81,.81l-12.67,26.41-28.55,2.18c-.09-.41-.26-.81-.51-1.18-.96-1.4-2.79-1.82-4.26-1.06Zm22.16-110.32c.08,.45,.25,.89,.52,1.29,.96,1.4,2.8,1.82,4.27,1.06l14.37,21.01c-1.11,1.11-1.31,2.88-.39,4.22,.26,.38,.58,.68,.94,.91l-11.08,23.09c-.95-.31-2.01-.2-2.9,.4-.96,.65-1.46,1.71-1.45,2.78l-26.01,1.99c-.09-.35-.23-.69-.44-1-.88-1.29-2.5-1.75-3.9-1.23l-14.51-21.21c.99-1.11,1.15-2.79,.27-4.08-.23-.34-.53-.62-.85-.85l11.3-23.56c.99,.39,2.16,.3,3.1-.35,.88-.61,1.36-1.56,1.43-2.55l25.33-1.94Zm50.41,24.15c.09,.34,.24,.68,.45,1,.91,1.34,2.64,1.79,4.08,1.16l14.46,21.14c-1.11,1.11-1.31,2.88-.39,4.22,.27,.4,.62,.71,1.01,.95l-11.07,23.07c-.96-.33-2.06-.23-2.97,.39-.97,.66-1.47,1.75-1.44,2.84l-25.47,1.95c-.07-.51-.23-1.01-.54-1.46-1-1.46-2.96-1.87-4.46-.96l-14.43-21.11c1.39-1.06,1.73-3.03,.73-4.5-.26-.38-.58-.69-.94-.92l11.07-23.08c.95,.31,2.02,.2,2.91-.4,.82-.56,1.3-1.43,1.41-2.35l25.61-1.95Zm66.99-2.8c.93,.27,1.95,.15,2.81-.43,.85-.58,1.34-1.5,1.42-2.46l25.56-1.96c.09,.38,.24,.75,.47,1.09,.96,1.4,2.8,1.82,4.27,1.06l16.27,23.8-12.55,26.16c-.99-.38-2.13-.29-3.07,.35-.82,.56-1.29,1.42-1.41,2.33l-25.62,1.95c-.09-.34-.23-.67-.44-.98-.88-1.29-2.5-1.75-3.9-1.23l-14.71-21.51c1.25-1.09,1.52-2.95,.56-4.36-.2-.3-.46-.54-.73-.75l11.07-23.06Zm25.51-60.56c.08,.43,.26,.85,.52,1.24,.96,1.4,2.8,1.82,4.27,1.06l14.43,21.1c-1.25,1.09-1.52,2.96-.56,4.36,.27,.39,.61,.7,.98,.94l-11.08,23.08c-.96-.32-2.04-.22-2.94,.4-.89,.61-1.38,1.59-1.43,2.59l-25.51,1.95c-.08-.42-.25-.84-.51-1.21-.96-1.4-2.8-1.82-4.27-1.06l-14.46-21.14c1.25-1.09,1.52-2.96,.56-4.36-.26-.38-.59-.7-.96-.93l11.07-23.08c.95,.32,2.04,.22,2.94-.39,.89-.61,1.39-1.59,1.43-2.6l25.52-1.95Zm50.57,24.02c.1,.33,.23,.66,.43,.95,.96,1.4,2.8,1.82,4.26,1.05l14.68,21.46c-1.24,1.09-1.52,2.96-.56,4.36,.25,.36,.57,.66,.92,.89l-11.08,23.09c-.94-.29-2-.18-2.88,.42-.88,.6-1.36,1.55-1.43,2.53l-28.62,2.19-16.32-23.85c.99-1.11,1.15-2.79,.27-4.08-.19-.28-.43-.51-.68-.71l11.14-23.21c.86,.19,1.79,.04,2.57-.5,.91-.62,1.4-1.61,1.44-2.62l25.85-1.98Zm29.07,80.87c-.08-.42-.25-.83-.51-1.21-.96-1.41-2.79-1.82-4.27-1.06l-14.46-21.14c1.25-1.09,1.52-2.96,.57-4.36-.27-.39-.6-.7-.97-.93l11.07-23.07c.96,.32,2.04,.22,2.94-.4,.9-.62,1.39-1.59,1.44-2.59l25.52-1.95c.09,.43,.25,.86,.52,1.24,.96,1.4,2.8,1.82,4.27,1.06l14.43,21.1c-1.25,1.09-1.52,2.96-.56,4.36,.26,.39,.6,.7,.98,.94l-11.08,23.09c-.96-.32-2.04-.22-2.94,.39-.89,.61-1.38,1.59-1.43,2.6l-25.51,1.95Zm-46.74,31.72c-.1-.37-.24-.73-.47-1.06-.88-1.29-2.5-1.75-3.9-1.23l-14.51-21.21c.99-1.11,1.15-2.79,.27-4.08-.22-.33-.5-.59-.81-.81l12.57-26.18,28.96-2.21c.09,.36,.24,.72,.46,1.04,.88,1.28,2.5,1.75,3.9,1.23l14.54,21.25c-.99,1.11-1.15,2.8-.27,4.08,.22,.32,.49,.57,.78,.79l-11.1,23.14c-.91-.25-1.9-.12-2.74,.45-.96,.66-1.46,1.72-1.45,2.8l-26.23,2.01Zm-45.92,31.65c-.09-.42-.26-.83-.52-1.21-.96-1.4-2.79-1.82-4.27-1.06l-14.46-21.14c1.24-1.09,1.52-2.96,.56-4.36-.26-.39-.6-.69-.97-.93l11.07-23.08c.95,.32,2.04,.22,2.94-.39,.9-.61,1.38-1.59,1.43-2.6l25.52-1.95c.08,.43,.26,.85,.52,1.24,.96,1.4,2.8,1.82,4.27,1.06l14.43,21.1c-1.24,1.1-1.52,2.96-.56,4.36,.27,.39,.61,.7,.98,.94l-11.08,23.09c-.96-.32-2.04-.22-2.93,.39-.9,.61-1.39,1.59-1.44,2.6l-25.51,1.94Zm-50.22-24.16c-.1-.35-.24-.7-.46-1.03-.96-1.4-2.79-1.82-4.26-1.06l-14.78-21.62c1.13-1.11,1.34-2.89,.42-4.25-.19-.27-.42-.49-.66-.69l11.14-23.22c.85,.18,1.77,.03,2.55-.5,.83-.57,1.31-1.45,1.41-2.37l26.18-2c.1,.26,.21,.52,.37,.76,.88,1.28,2.5,1.75,3.9,1.23l14.71,21.52c-1.25,1.09-1.52,2.96-.56,4.36,.25,.37,.56,.66,.92,.9l-11.09,23.09c-.94-.3-2-.19-2.87,.41-.88,.6-1.37,1.55-1.43,2.53l-25.49,1.94Zm-16.68,27.08c-.99-.38-2.13-.29-3.07,.36-.82,.56-1.29,1.42-1.41,2.33l-25.62,1.95c-.09-.34-.23-.67-.44-.98-.88-1.28-2.49-1.75-3.89-1.23l-16.25-23.76,12.56-26.17c.92,.26,1.94,.14,2.78-.44,.78-.53,1.26-1.34,1.4-2.21l25.66-1.96c.09,.29,.22,.58,.4,.85,.92,1.34,2.64,1.79,4.08,1.16l14.82,21.67c-.99,1.11-1.15,2.8-.27,4.08,.18,.26,.4,.48,.63,.67l-11.36,23.68Zm-25.77,60.46c-.09-.42-.26-.83-.52-1.21-.96-1.4-2.79-1.82-4.26-1.06l-14.45-21.14c1.24-1.09,1.51-2.96,.55-4.36-.26-.38-.59-.7-.96-.93l11.07-23.08c.95,.32,2.04,.22,2.93-.39,.9-.61,1.39-1.59,1.44-2.6l25.52-1.95c.08,.43,.25,.85,.51,1.24,.96,1.4,2.8,1.82,4.27,1.06l14.43,21.1c-1.25,1.09-1.52,2.96-.56,4.36,.27,.39,.61,.7,.98,.93l-11.08,23.09c-.95-.32-2.04-.22-2.94,.39-.9,.61-1.39,1.58-1.43,2.59l-25.5,1.95Zm-46.33,31.69c-.08-.43-.26-.84-.52-1.21-.96-1.4-2.8-1.82-4.27-1.06l-14.56-21.29c1.25-1.09,1.52-2.96,.56-4.36-.23-.34-.52-.61-.84-.83l11.1-23.14c.91,.25,1.93,.13,2.77-.45,.84-.58,1.32-1.47,1.42-2.41l26.03-1.99c.09,.36,.24,.72,.46,1.05,.88,1.28,2.51,1.75,3.9,1.22l14.53,21.25c-.99,1.11-1.15,2.8-.27,4.08,.22,.32,.49,.57,.78,.79l-11.23,23.41c-.96-.32-2.04-.22-2.94,.4-.9,.61-1.39,1.59-1.43,2.59l-25.51,1.95Zm-29-80.88c.09,.4,.25,.79,.49,1.15,.96,1.4,2.8,1.82,4.27,1.06l14.43,21.1c-1.25,1.09-1.52,2.96-.56,4.36,.29,.42,.66,.75,1.07,.98l-11.07,23.07c-.97-.36-2.1-.26-3.03,.37-.93,.63-1.42,1.65-1.44,2.69l-25.49,1.95c-.08-.45-.24-.9-.52-1.31-.96-1.4-2.8-1.82-4.27-1.05l-14.46-21.14c1.25-1.09,1.52-2.96,.56-4.36-.25-.36-.55-.65-.89-.88l11.09-23.11c.93,.28,1.98,.17,2.85-.42,.87-.59,1.35-1.53,1.42-2.5l25.56-1.95Zm16.51-26.81c.94,.28,1.98,.17,2.84-.42,.87-.6,1.35-1.52,1.42-2.5l28.65-2.19,16.22,23.71c-1.25,1.09-1.52,2.96-.56,4.36,.25,.36,.56,.66,.92,.9l-11.08,23.09c-.94-.3-2-.19-2.88,.41-.88,.6-1.36,1.55-1.43,2.53l-25.99,1.99c-.09-.4-.25-.79-.49-1.15-.88-1.29-2.5-1.75-3.9-1.23l-14.51-21.21c.99-1.11,1.15-2.79,.27-4.08-.2-.29-.46-.54-.73-.75l11.25-23.46Zm-46.05-28.02c-.09-.4-.25-.79-.5-1.16-.96-1.4-2.79-1.82-4.26-1.06l-14.46-21.14c1.25-1.09,1.52-2.96,.56-4.36-.27-.41-.63-.72-1.02-.96l11.07-23.07c.97,.35,2.08,.25,3-.38,.91-.62,1.41-1.62,1.44-2.65l25.51-1.95c.08,.45,.25,.89,.52,1.3,.96,1.4,2.8,1.82,4.27,1.06l14.43,21.1c-1.24,1.09-1.52,2.96-.56,4.36,.26,.38,.57,.68,.93,.91l-11.08,23.1c-.94-.3-2-.19-2.88,.41-.88,.6-1.37,1.55-1.43,2.54l-25.53,1.95Zm-50.63-24.02c-.09-.36-.24-.7-.46-1.03-.96-1.4-2.79-1.82-4.27-1.06l-14.62-21.38c1.24-1.09,1.52-2.95,.56-4.35-.25-.37-.57-.67-.91-.9l11.09-23.1c.94,.29,1.99,.18,2.86-.42,.87-.6,1.36-1.54,1.42-2.52l28.64-2.19,16.35,23.91c-.99,1.12-1.15,2.8-.27,4.08,.18,.27,.4,.48,.63,.67l-11.14,23.22c-.85-.17-1.76-.01-2.53,.51-.89,.61-1.38,1.58-1.43,2.58l-25.92,1.98Zm-58.92-75.93c.96,.32,2.05,.22,2.94-.4,.9-.61,1.39-1.59,1.43-2.6l25.52-1.95c.08,.44,.25,.86,.51,1.24,.96,1.4,2.8,1.82,4.27,1.06l14.43,21.1c-1.25,1.09-1.52,2.96-.57,4.36,.27,.39,.61,.7,.98,.94l-11.08,23.08c-.96-.32-2.04-.22-2.94,.39-.9,.61-1.39,1.59-1.43,2.6l-25.51,1.95c-.09-.42-.25-.83-.51-1.21-.96-1.4-2.79-1.82-4.26-1.06l-14.46-21.14c1.24-1.09,1.52-2.96,.56-4.36-.27-.39-.6-.7-.97-.93l11.07-23.08Zm-54.68-79.73c.85,.17,1.76,.01,2.53-.51,.89-.61,1.38-1.58,1.43-2.58l25.52-1.95c.09,.43,.25,.85,.51,1.23,1.04,1.51,3.11,1.9,4.62,.86l14.38,21.03c-1.51,1.04-1.91,3.11-.87,4.62,.35,.51,.83,.88,1.35,1.12l-11.07,23.06c-1.03-.5-2.3-.46-3.32,.24-.9,.61-1.39,1.59-1.43,2.61l-25.5,1.95c-.08-.43-.26-.84-.52-1.23-.88-1.29-2.5-1.75-3.9-1.23l-14.53-21.25c.99-1.11,1.15-2.79,.27-4.08-.18-.26-.4-.48-.63-.68l11.14-23.22Zm-25.01-84.91c.07,.5,.23,.99,.54,1.44,1.03,1.51,3.1,1.9,4.62,.86l14.38,21.04c-1.51,1.04-1.9,3.11-.87,4.62,.31,.45,.71,.78,1.16,1.03l-11.06,23.06c-1-.41-2.17-.32-3.13,.33-.84,.57-1.32,1.46-1.42,2.39l-25.59,1.96c-.09-.35-.24-.7-.45-1.02-.88-1.29-2.5-1.75-3.9-1.23l-14.53-21.25c.99-1.11,1.15-2.79,.27-4.08-.22-.33-.5-.59-.8-.81l11.1-23.14c.91,.24,1.91,.12,2.75-.45,.96-.65,1.46-1.72,1.45-2.8l25.49-1.95Zm50.55,24.14c.09,.36,.23,.71,.45,1.03,.96,1.4,2.8,1.82,4.27,1.05l14.46,21.14c-1.24,1.09-1.52,2.96-.56,4.36,.3,.44,.7,.78,1.13,1.02l-11.24,23.43c-1.01-.43-2.2-.36-3.18,.31-.85,.58-1.33,1.5-1.42,2.45l-25.57,1.95c-.09-.39-.25-.76-.48-1.1-.88-1.29-2.5-1.75-3.9-1.23l-14.52-21.23c.99-1.12,1.15-2.79,.27-4.08-.21-.31-.47-.56-.75-.77l11.12-23.17c.89,.22,1.85,.08,2.67-.47,.93-.64,1.43-1.67,1.45-2.72l25.81-1.97Zm16.45-26.61c.85,.17,1.76,.02,2.54-.51,.89-.61,1.38-1.58,1.43-2.58l25.53-1.95c.08,.42,.25,.85,.51,1.23,1.04,1.51,3.1,1.9,4.62,.86l14.38,21.03c-1.51,1.04-1.91,3.11-.87,4.62,.35,.51,.82,.88,1.35,1.12l-11.06,23.06c-1.04-.5-2.3-.46-3.32,.23-.9,.62-1.39,1.6-1.44,2.61l-25.5,1.94c-.08-.42-.25-.84-.51-1.22-.88-1.29-2.5-1.75-3.9-1.23l-14.53-21.25c.99-1.11,1.15-2.79,.27-4.08-.18-.26-.4-.48-.64-.67l11.14-23.22Zm-3.86-56.03c.94,.29,1.99,.18,2.87-.42s1.36-1.54,1.43-2.52l25.5-1.95c.09,.36,.23,.71,.45,1.03,.96,1.4,2.8,1.82,4.27,1.06l14.46,21.14c-1.25,1.09-1.52,2.96-.56,4.36,.3,.44,.7,.77,1.13,1.02l-11.37,23.7c-1.06-.56-2.38-.55-3.44,.17-.82,.56-1.3,1.43-1.41,2.34l-25.61,1.96c-.1-.35-.23-.68-.45-1-.8-1.17-2.2-1.65-3.5-1.35l-14.4-21.06c1.25-1.09,1.52-2.96,.56-4.36-.28-.4-.63-.72-1.03-.96l11.11-23.17Z"/>
  </g>
</svg>