<?xml version="1.0" encoding="UTF-8"?>
<svg id="Layer_1" data-name="Layer 1" xmlns="http://www.w3.org/2000/svg" xmlns:xlink="http://www.w3.org/1999/xlink" viewBox="0 0 345.97 431.11">
  <defs>
    <style>
      .cls-1 {
        opacity: .3;
      }

      .cls-2 {
        clip-path: url(#clippath);
      }

      .cls-3 {
        fill: none;
      }

      .cls-4 {
        fill: #73704d;
      }
    </style>
    <clipPath id="clippath">
      <rect class="cls-3" width="330.93" height="431.11"/>
    </clipPath>
  </defs>
  <g class="cls-1">
    <g class="cls-2">
      <path class="cls-4" d="M240.05,4.49c-.93-.58-2.31-.2-2.41,1.03-2.77,31.24-30.51,87.52,14.5,100.08-6.33,28.99-9.9,59.83-25.35,85.7-11.71-18.32-23.81-36.4-35.35-54.83-.24-.38-.55-.56-.87-.62,22.31-5.57,21.28-29.64,12.02-46.97-6.14-11.5-17.32-19.21-28.15-25.9-14.31-8.85-30.16-14.97-45.75-21.13-.96-.38-2.36,.47-2.05,1.61,6.15,23.17,3.17,47.87,11.23,70.69,3.59,10.14,10.03,18.17,19.37,23.48,10.17,5.79,21.45,3.6,31.66-.72-.17,.43-.16,.92,.14,1.4,14.01,22.36,28.77,44.22,42.78,66.57,8.04,12.81,15.47,25.84,22.5,39.1-35.28-13.12-69.46-29.9-101.19-50.18,15.54-21.88-9.76-48.64-28.7-58.37-30.42-15.62-67.12,.43-99.22-6.31-1.17-.24-1.94,1.11-1.58,2.08,6.85,18.33,17.68,34.42,30.98,48.68,11.11,11.92,24.07,23.98,38.8,31.22,21,10.32,50.51,10.71,57.4-15.2,32.86,21.05,68.32,38.43,104.94,51.85,.22,.08,.42,.11,.61,.09,4.7,9.01,9.22,18.12,13.59,27.36,7.42,15.65,15.4,31.06,23.35,46.49-.22,.87,.29,1.57,.96,1.86,15.1,29.29,29.98,58.69,40.53,89.97,.62,1.85,3.41,.67,2.79-1.16-10.67-31.65-25.74-61.42-41.01-91.08,6-20.1,8.46-40.85,13.76-61.06,4.43-16.85,9.6-32.86,10.49-50.4,23.74-3.79,27.93-38.54,23.67-57.41-2.5-11.11-11.35-20.23-19.7-27.38-9.04-7.72-19.96-14.27-31.37-17.73-.79-.24-1.64,.04-1.97,.85-11.77,29.15-26.37,108.31,26.36,101.4-.93,17.89-6.3,34.38-10.82,51.58-2.46,9.36-3.61,19.22-5.58,28.7-1.93,9.28-4.19,18.48-6.85,27.58-7.42-14.39-14.85-28.77-21.81-43.34-11.31-23.69-23.37-46.58-37.22-68.89-2.31-3.72-4.65-7.42-7-11.12,.14-.11,.27-.23,.39-.42,16.03-26.51,19.74-58.03,26.25-87.8,9.3-1.82,18.5-6.04,23.1-14.81,4.78-9.11,4.29-19.56,2.03-29.32-5.18-22.32-20.74-45.04-40.25-57.18Zm-86.77,127.02c-8.77-6.53-12.89-17.55-15.33-27.79-4.55-19.02-3.21-38.98-7.66-57.99,22.75,8.91,49.35,18.65,65.2,37.85,12.3,14.89,17.91,44.58-6.8,49.62-.61,.12-.99,.52-1.14,1-12.06,5.04-23.29,5.48-34.26-2.68Zm-63.53,74.26c-13.45-7.69-25.53-19.75-35.85-31.11-11.23-12.36-20.26-26.53-26.43-42.03,27.46,4.84,55.52-4.42,82.97,1.19,21.45,4.37,56.98,33.94,40.43,57.93-.81-.5-2.19-.23-2.43,1.03-5.59,29.32-38.9,24.31-58.69,13Zm204-95.2c18.2,5.91,37.37,19.7,45.83,36.99,8.35,17.06,3.34,55.64-19.28,59.26-.28-.37-.74-.6-1.35-.51-50.53,8.04-36.16-67.38-25.2-95.74Zm-18.02-53.96c3.12,9.12,4.61,19.42,1.7,28.78-3.12,10.04-12.17,15.14-21.82,17.24-.46-.93-2.1-.99-2.72,.05-41.04-11.9-16.29-64.21-12.51-94.35,16.65,11.2,28.94,29.54,35.35,48.29Z"/>
    </g>
  </g>
</svg>